<svg xmlns="http://www.w3.org/2000/svg"><symbol id="icon_ac-shop1" viewBox="-118.6 95.5 543.6 627"><path d="M-118.6 688.1c0 19.3 15.1 34.4 34.4 34.4h474.8c19 0 34.4-15.9 34.4-35.4V129.9c0-9.2-3.5-17.9-10-24.4-6.4-6.4-15.1-10-24.3-10H-84.2c-19.3 0-34.4 15.1-34.4 34.4v558.2zm15.8-558.2c0-10.4 8.2-18.6 18.6-18.6h474.8c10.4 0 18.6 8.2 18.6 18.6V685l.1 2c0 10.4-8.2 18.6-18.6 18.6H-84.2c-10.4 0-18.6-8.2-18.6-18.6V129.9z"/><path d="M47 160.5h-85c-5.3 0-9.6 4.3-9.6 9.6v85c0 5.3 4.3 9.6 9.6 9.6h85c5.3 0 9.6-4.3 9.6-9.6v-85c0-5.3-4.3-9.6-9.6-9.6zM40.8 242c0 3.8-3.1 6.9-6.9 6.9h-57.7c-3.8 0-6.9-3.1-6.9-6.9v-57.7c0-3.8 3.1-6.9 6.9-6.9h57.7c3.8 0 6.9 3.1 6.9 6.9V242zm304.7 388.2H-39.2c-4.6 0-8.4 3.8-8.4 8.4s3.8 8.4 8.4 8.4h384.7c4.6 0 8.4-3.8 8.4-8.4s-3.7-8.4-8.4-8.4zm0-469.7H121.2c-4.6 0-8.4 3.8-8.4 8.4s3.8 8.4 8.4 8.4h224.3c4.6 0 8.4-3.8 8.4-8.4s-3.7-8.4-8.4-8.4zm0 75.3H121.2c-4.6 0-8.4 3.8-8.4 8.4s3.8 8.4 8.4 8.4h224.3c4.6 0 8.4-3.8 8.4-8.4s-3.7-8.4-8.4-8.4zm-16.3 95.6c5.4 0 9.7 4.4 9.7 9.7v214.8c0 5.4-4.4 9.7-9.7 9.7H-22.9c-5.4 0-9.7-4.4-9.7-9.7V341.1c0-5.4 4.4-9.7 9.7-9.7h352.1m0-17H-22.9c-14.8 0-26.7 12-26.7 26.7v214.8c0 14.8 12 26.7 26.7 26.7h352.1c14.8 0 26.7-12 26.7-26.7V341.1c0-14.8-11.9-26.7-26.7-26.7z"/></symbol><symbol id="icon_arrow" viewBox="0 0 24 24"><g id="Symbols" fill-rule="evenodd"><g id="icon/arrow"><path d="M18.192 13H4v-1h14.121L13 6.879l.707-.707 6.01 6.01.354.354-6.364 6.363-.707-.707L18.192 13z" id="Combined-Shape"/></g></g></symbol><symbol id="icon_burger" viewBox="0 0 53 53"><path d="M2 13.5h49a2 2 0 0 0 0-4H2a2 2 0 0 0 0 4zm0 15h49a2 2 0 0 0 0-4H2a2 2 0 0 0 0 4zm0 15h49a2 2 0 0 0 0-4H2a2 2 0 0 0 0 4z"/></symbol><symbol id="icon_close" viewBox="0 0 512 512"><path d="M505.943 6.058c-8.077-8.077-21.172-8.077-29.249 0L6.058 476.693c-8.077 8.077-8.077 21.172 0 29.249A20.612 20.612 0 0 0 20.683 512a20.614 20.614 0 0 0 14.625-6.059L505.943 35.306c8.076-8.076 8.076-21.171 0-29.248z"/><path d="M505.942 476.694L35.306 6.059c-8.076-8.077-21.172-8.077-29.248 0-8.077 8.076-8.077 21.171 0 29.248l470.636 470.636a20.616 20.616 0 0 0 14.625 6.058 20.615 20.615 0 0 0 14.624-6.057c8.075-8.078 8.075-21.173-.001-29.25z"/></symbol><symbol id="icon_f" viewBox="0 0 430.113 430.114"><path id="Facebook" d="M158.081 83.3v59.218h-43.385v72.412h43.385v215.183h89.122V214.936h59.805s5.601-34.721 8.316-72.685H247.54V92.74c0-7.4 9.717-17.354 19.321-17.354h48.557V.001h-66.021C155.878-.004 158.081 72.48 158.081 83.3z"/></symbol><symbol id="icon_instagram" viewBox="0 0 512 512"><path d="M373.659 0H138.341C62.06 0 0 62.06 0 138.341v235.318C0 449.94 62.06 512 138.341 512h235.318C449.94 512 512 449.94 512 373.659V138.341C512 62.06 449.94 0 373.659 0zm96.977 373.659c0 53.473-43.503 96.977-96.977 96.977H138.341c-53.473 0-96.977-43.503-96.977-96.977V138.341c0-53.473 43.503-96.977 96.977-96.977h235.318c53.473 0 96.977 43.503 96.977 96.977v235.318z"/><path d="M370.586 238.141c-3.64-24.547-14.839-46.795-32.386-64.342-17.547-17.546-39.795-28.746-64.341-32.385a114.73 114.73 0 0 0-33.682 0c-30.336 4.499-57.103 20.541-75.372 45.172-18.269 24.631-25.854 54.903-21.355 85.237 4.499 30.335 20.541 57.102 45.172 75.372 19.996 14.831 43.706 22.619 68.153 22.619 5.667 0 11.375-.418 17.083-1.265 30.336-4.499 57.103-20.541 75.372-45.172 18.27-24.63 25.855-54.901 21.356-85.236zm-102.795 89.491c-19.405 2.882-38.77-1.973-54.527-13.66-15.757-11.687-26.019-28.811-28.896-48.216-2.878-19.405 1.973-38.77 13.66-54.527 11.688-15.757 28.811-26.019 48.217-28.897a73.42 73.42 0 0 1 21.545.001c32.231 4.779 57.098 29.645 61.878 61.877 5.94 40.058-21.817 77.482-61.877 83.422zm132.258-215.681a20.83 20.83 0 0 0-14.625-6.058 20.826 20.826 0 0 0-14.625 6.058 20.814 20.814 0 0 0-6.058 14.625 20.814 20.814 0 0 0 6.058 14.625 20.83 20.83 0 0 0 14.625 6.058 20.826 20.826 0 0 0 14.625-6.058 20.83 20.83 0 0 0 6.058-14.625 20.826 20.826 0 0 0-6.058-14.625z"/></symbol><symbol id="icon_lantelia" viewBox="0 0 148 12"><g id="Desktop" fill-rule="evenodd"><g id="01_Main_page/shop-4,1" transform="translate(-61 -53)"><g id="header"><g id="logo"><path d="M61.965 65h8.346v-1.904h-6.256V53.1h-2.09V65zm18.002 0l5.237-11.985h1.938L92.377 65h-2.21l-1.208-2.873h-5.626L82.109 65h-2.141zm4.132-4.726h4.096l-2.056-4.76-2.04 4.76zM102.918 65h2.056v-8.466L111.538 65h1.75V53.1h-2.056v8.228l-6.375-8.228h-1.938V65zm24.853 0h2.109v-9.962h3.774V53.1h-9.656v1.938h3.773V65zm16.592 0h8.909v-1.87h-6.817v-3.196h5.966v-1.87h-5.966V54.97h6.731V53.1h-8.823V65zm19.89 0h8.348v-1.904h-6.256V53.1h-2.091V65zm19.143 0h2.09V53.1h-2.09V65zm12.75 0l5.236-11.985h1.938L208.555 65h-2.21l-1.208-2.873h-5.626L198.287 65h-2.142zm4.13-4.726h4.097l-2.056-4.76-2.04 4.76z" id="Lantelia"/></g></g></g></g></symbol><symbol id="icon_phone" viewBox="0 0 24 24"><g id="Symbols" fill-rule="evenodd"><g id="icon/phone" fill-rule="nonzero"><path d="M18.5 13A7.5 7.5 0 0 0 11 5.5v1a6.5 6.5 0 0 1 6.5 6.5h1z" id="Oval"/><path d="M22.5 12c0-5.799-4.701-10.5-10.5-10.5v1a9.5 9.5 0 0 1 9.5 9.5h1z" id="Oval"/><path d="M13.408 16.218l.682-.024a61.65 61.65 0 0 1-.35-.307l-.332.33zm2.028-2.028l6.064 2.02v.36c0 1.688-.66 3.11-1.947 3.98-.844 1.259-2.334 1.949-3.982 1.949-1.181 0-2.215-.32-2.999-.99A24.486 24.486 0 0 1 2.49 11.428c-.67-.784-.99-1.818-.99-3 0-1.647.69-3.137 1.95-3.98C4.317 3.16 5.741 2.5 7.428 2.5h.36L9.81 8.564 8.113 10.26a64.136 64.136 0 0 0 5.626 5.626l1.697-1.697zm.27 1.144l-1.92 1.92-.352-.305a65.025 65.025 0 0 1-6.383-6.383l-.306-.352 1.921-1.92-1.594-4.782c-1.239.084-2.232.615-2.841 1.567l-.155.153C3.07 5.867 2.5 7.064 2.5 8.43c0 .977.259 1.793.78 2.383l.066.096a23.487 23.487 0 0 0 9.746 9.746l.096.067c.59.52 1.406.779 2.383.779 1.365 0 2.562-.57 3.197-1.576l.153-.155c.952-.609 1.483-1.602 1.567-2.841l-4.782-1.594z" id="Shape"/></g></g></symbol><symbol id="icon_phonecopy3" viewBox="0 0 24 24"><g id="Symbols" fill-rule="evenodd"><g id="icon/phone-copy-3" fill-rule="nonzero"><path d="M13.79 15.504l.68-.024a58.389 58.389 0 0 1-.35-.307l-.33.33zm1.932-1.933l5.778 1.926v.36c0 1.605-.628 2.96-1.852 3.789-.805 1.198-2.224 1.854-3.79 1.854-1.125 0-2.11-.305-2.857-.943A23.223 23.223 0 0 1 3.443 11c-.638-.747-.943-1.732-.943-2.856 0-1.568.656-2.986 1.854-3.79C5.183 3.127 6.538 2.5 8.143 2.5h.36l1.926 5.778L8.827 9.88a60.74 60.74 0 0 0 5.293 5.293l1.602-1.602zm.27 1.144l-1.825 1.825-.352-.305a61.629 61.629 0 0 1-6.05-6.05l-.305-.352 1.825-1.825-1.498-4.495c-1.156.083-2.083.582-2.652 1.47l-.154.154C4.036 5.733 3.5 6.86 3.5 8.143c0 .92.243 1.687.732 2.24l.067.096a22.225 22.225 0 0 0 9.222 9.222l.096.067c.553.489 1.32.732 2.24.732 1.284 0 2.41-.536 3.006-1.481l.153-.154c.89-.57 1.388-1.495 1.471-2.652l-4.495-1.498z" id="Shape"/></g></g></symbol><symbol id="icon_pin" viewBox="0 0 24 24"><g id="Symbols" fill-rule="evenodd"><g id="icon/pin" fill-rule="nonzero"><path d="M12.61 22.608l.856-.717c.695-.584 1.307-1.109 1.888-1.62.436-.384.843-.752 1.223-1.105 1.037-.963 1.853-1.802 2.413-2.496A9.134 9.134 0 0 0 21 10.914C21 5.982 17.185 2 12.5 2 7.815 2 4 5.982 4 10.914c0 2.13.714 4.141 1.993 5.735.557.694 1.367 1.53 2.397 2.488.387.36.802.735 1.246 1.126a105.63 105.63 0 0 0 1.894 1.626 234.798 234.798 0 0 0 .97.81l.11-.091zM12.5 24c-1.9-1.586-5.544-4.553-7.286-6.725A10.136 10.136 0 0 1 3 10.914C3 5.439 7.253 1 12.5 1S22 5.439 22 10.914c0 2.432-.84 4.659-2.232 6.384C18.026 19.456 14.4 22.414 12.5 24z" id="pin"/><path d="M12.5 13a2.5 2.5 0 1 0 0-5 2.5 2.5 0 0 0 0 5zm0 1a3.5 3.5 0 1 1 0-7 3.5 3.5 0 0 1 0 7z" id="Oval-6"/></g></g></symbol><symbol id="icon_play" viewBox="0 0 24 24"><g id="Symbols" fill-rule="evenodd"><g id="icon/play" fill-rule="nonzero"><path d="M22 20.296V4.704L8.05 12.5 22 20.296zM6 12.5L23 3v19L6 12.5z" id="Rectangle-2" transform="matrix(-1 0 0 1 29 0)"/></g></g></symbol><symbol id="icon_shopping-cart" viewBox="0 0 24 24"><g id="Symbols" fill-rule="evenodd"><g id="icon/shop" fill-rule="nonzero"><path d="M8.5 20a.5.5 0 1 0 0-1 .5.5 0 0 0 0 1zm0 1a1.5 1.5 0 1 1 0-3 1.5 1.5 0 0 1 0 3z" id="Oval-4"/><path d="M18.5 20a.5.5 0 1 0 0-1 .5.5 0 0 0 0 1zm0 1a1.5 1.5 0 1 1 0-3 1.5 1.5 0 0 1 0 3z" id="Oval-4-Copy"/><path d="M8.72 15h9.56l2.333-7H6.387l2.334 7zM5 7h17l-3 9H8L5 7z" id="Path-8"/><path id="Path-9" d="M3.64 3.5l1.886 5.658.948-.316L4.36 2.5H1v1z"/></g></g></symbol><symbol id="icon_shopw" viewBox="0 0 24 24"><g id="Symbols" fill-rule="evenodd"><g id="icon/shop-W" fill-rule="nonzero"><path d="M8.5 20a.5.5 0 1 0 0-1 .5.5 0 0 0 0 1zm0 1a1.5 1.5 0 1 1 0-3 1.5 1.5 0 0 1 0 3z" id="Oval-4"/><path d="M18.5 20a.5.5 0 1 0 0-1 .5.5 0 0 0 0 1zm0 1a1.5 1.5 0 1 1 0-3 1.5 1.5 0 0 1 0 3z" id="Oval-4-Copy"/><path d="M8.72 15h9.56l2.333-7H6.387l2.334 7zM5 7h17l-3 9H8L5 7z" id="Path-8"/><path id="Path-9" d="M3.64 3.5l1.886 5.658.948-.316L4.36 2.5H1v1z"/></g></g></symbol><symbol id="icon_t" viewBox="0 0 48 48"><g id="Symbols" fill-rule="evenodd"><g id="button/SNW/t"><path d="M21.231 30.517c6.278 0 9.711-5.201 9.711-9.711 0-.148 0-.295-.01-.441a6.944 6.944 0 0 0 1.703-1.767 6.812 6.812 0 0 1-1.96.537 3.425 3.425 0 0 0 1.5-1.887 6.84 6.84 0 0 1-2.167.828 3.416 3.416 0 0 0-5.816 3.113 9.69 9.69 0 0 1-7.034-3.566 3.415 3.415 0 0 0 1.056 4.556 3.388 3.388 0 0 1-1.549-.427v.043a3.414 3.414 0 0 0 2.738 3.345 3.407 3.407 0 0 1-1.54.059 3.417 3.417 0 0 0 3.188 2.37A6.848 6.848 0 0 1 16 28.984a9.662 9.662 0 0 0 5.231 1.53" id="icon"/></g></g></symbol><symbol id="icon_twitter" viewBox="0 0 449.956 449.956"><path d="M449.956 85.657c-17.702 7.614-35.408 12.369-53.102 14.279 19.985-11.991 33.503-28.931 40.546-50.819-18.281 10.847-37.787 18.268-58.532 22.267-18.274-19.414-40.73-29.125-67.383-29.125-25.502 0-47.246 8.992-65.24 26.98-17.984 17.987-26.977 39.731-26.977 65.235 0 6.851.76 13.896 2.284 21.128-37.688-1.903-73.042-11.372-106.068-28.407C82.46 110.158 54.433 87.46 31.403 59.101c-8.375 14.272-12.564 29.787-12.564 46.536 0 15.798 3.711 30.456 11.138 43.97 7.422 13.512 17.417 24.455 29.98 32.831-14.849-.572-28.743-4.475-41.684-11.708v1.142c0 22.271 6.995 41.824 20.983 58.674 13.99 16.848 31.645 27.453 52.961 31.833a95.543 95.543 0 0 1-24.269 3.138c-5.33 0-11.136-.475-17.416-1.42 5.9 18.459 16.75 33.633 32.546 45.535 15.799 11.896 33.691 18.028 53.677 18.418-33.498 26.262-71.66 39.393-114.486 39.393-8.186 0-15.607-.373-22.27-1.139 42.827 27.596 90.03 41.394 141.612 41.394 32.738 0 63.478-5.181 92.21-15.557 28.746-10.369 53.297-24.267 73.665-41.686 20.362-17.415 37.925-37.448 52.674-60.097 14.75-22.651 25.738-46.298 32.977-70.946 7.23-24.653 10.848-49.344 10.848-74.092 0-5.33-.096-9.325-.287-11.991 18.087-13.127 33.504-29.023 46.258-47.672z"/></symbol><symbol id="icon_vk" viewBox="0 0 548.358 548.358"><path d="M545.451 400.298c-.664-1.431-1.283-2.618-1.858-3.569-9.514-17.135-27.695-38.167-54.532-63.102l-.567-.571-.284-.28-.287-.287h-.288c-12.18-11.611-19.893-19.418-23.123-23.415-5.91-7.614-7.234-15.321-4.004-23.13 2.282-5.9 10.854-18.36 25.696-37.397 7.807-10.089 13.99-18.175 18.556-24.267 32.931-43.78 47.208-71.756 42.828-83.939l-1.701-2.847c-1.143-1.714-4.093-3.282-8.846-4.712-4.764-1.427-10.853-1.663-18.278-.712l-82.224.568c-1.332-.472-3.234-.428-5.712.144l-3.713.859-1.431.715-1.136.859c-.952.568-1.999 1.567-3.142 2.995-1.137 1.423-2.088 3.093-2.848 4.996-8.952 23.031-19.13 44.444-30.553 64.238-7.043 11.803-13.511 22.032-19.418 30.693-5.899 8.658-10.848 15.037-14.842 19.126-4 4.093-7.61 7.372-10.852 9.849-3.237 2.478-5.708 3.525-7.419 3.142-1.715-.383-3.33-.763-4.859-1.143-2.663-1.714-4.805-4.045-6.42-6.995-1.622-2.95-2.714-6.663-3.285-11.136-.568-4.476-.904-8.326-1-11.563-.089-3.233-.048-7.806.145-13.706.198-5.903.287-9.897.287-11.991 0-7.234.141-15.085.424-23.555.288-8.47.521-15.181.716-20.125.194-4.949.284-10.185.284-15.705s-.336-9.849-1-12.991a44.442 44.442 0 0 0-2.99-9.137c-1.335-2.95-3.289-5.232-5.853-6.852-2.569-1.618-5.763-2.902-9.564-3.856-10.089-2.283-22.936-3.518-38.547-3.71-35.401-.38-58.148 1.906-68.236 6.855-3.997 2.091-7.614 4.948-10.848 8.562-3.427 4.189-3.905 6.475-1.431 6.851 11.422 1.711 19.508 5.804 24.267 12.275l1.715 3.429c1.334 2.474 2.666 6.854 3.999 13.134 1.331 6.28 2.19 13.227 2.568 20.837.95 13.897.95 25.793 0 35.689-.953 9.9-1.853 17.607-2.712 23.127-.859 5.52-2.143 9.993-3.855 13.418-1.715 3.426-2.856 5.52-3.428 6.28-.571.76-1.047 1.239-1.425 1.427a21.387 21.387 0 0 1-7.71 1.431c-2.667 0-5.901-1.334-9.707-4-3.805-2.666-7.754-6.328-11.847-10.992-4.093-4.665-8.709-11.184-13.85-19.558-5.137-8.374-10.467-18.271-15.987-29.691l-4.567-8.282c-2.855-5.328-6.755-13.086-11.704-23.267-4.952-10.185-9.329-20.037-13.134-29.554-1.521-3.997-3.806-7.04-6.851-9.134l-1.429-.859c-.95-.76-2.475-1.567-4.567-2.427a30.301 30.301 0 0 0-6.567-1.854l-78.229.568c-7.994 0-13.418 1.811-16.274 5.428l-1.143 1.711c-.571.953-.859 2.475-.859 4.57 0 2.094.571 4.664 1.714 7.707 11.42 26.84 23.839 52.725 37.257 77.659 13.418 24.934 25.078 45.019 34.973 60.237 9.897 15.229 19.985 29.602 30.264 43.112 10.279 13.515 17.083 22.176 20.412 25.981 3.333 3.812 5.951 6.662 7.854 8.565l7.139 6.851c4.568 4.569 11.276 10.041 20.127 16.416 8.853 6.379 18.654 12.659 29.408 18.85 10.756 6.181 23.269 11.225 37.546 15.126 14.275 3.905 28.169 5.472 41.684 4.716h32.834c6.659-.575 11.704-2.669 15.133-6.283l1.136-1.431c.764-1.136 1.479-2.901 2.139-5.276.668-2.379 1-5 1-7.851-.195-8.183.428-15.558 1.852-22.124 1.423-6.564 3.045-11.513 4.859-14.846 1.813-3.33 3.859-6.14 6.136-8.418 2.282-2.283 3.908-3.666 4.862-4.142.948-.479 1.705-.804 2.276-.999 4.568-1.522 9.944-.048 16.136 4.429 6.187 4.473 11.99 9.996 17.418 16.56 5.425 6.57 11.943 13.941 19.555 22.124 7.617 8.186 14.277 14.271 19.985 18.274l5.708 3.426c3.812 2.286 8.761 4.38 14.853 6.283 6.081 1.902 11.409 2.378 15.984 1.427l73.087-1.14c7.229 0 12.854-1.197 16.844-3.572 3.998-2.379 6.373-5 7.139-7.851.764-2.854.805-6.092.145-9.712-.677-3.611-1.344-6.136-2.008-7.563z"/></symbol></svg>