<svg xmlns="http://www.w3.org/2000/svg" viewBox="0 0 146.56 12"><title>Lantelia_logo</title><path d="M0,12H8.31V10.1H2.06V.1H0Zm18,0L23.2,0h1.94l5.24,12H28.17L27,9.13H21.33L20.11,12Zm4.1-4.73h4.1L24.14,2.51ZM40.92,12H43V3.53L49.54,12h1.75V.1H49.23V8.33L42.86.1H40.92Zm24.85,0h2.11V2h3.77V.1H62V2h3.77Zm16.59,0h8.91V10.13H84.45V6.93h6V5.06h-6V2h6.73V.1H82.36Zm19.89,0h8.35V10.1h-6.26V.1h-2.09Zm19.14,0h2.09V.1H121.4Zm12.75,0,5.24-12h1.94l5.24,12h-2.21l-1.21-2.87h-5.63L136.29,12Zm4.13-4.73h4.1l-2.06-4.76Z"/></svg>