<?xml version="1.0" encoding="UTF-8"?>
<svg width="148px" height="12px" viewBox="0 0 148 12" version="1.1" xmlns="http://www.w3.org/2000/svg" xmlns:xlink="http://www.w3.org/1999/xlink">
  <g id="Desktop" stroke="#000000" stroke-width="1" fill="#000000" fill-rule="evenodd">
      <g id="01_Main_page-1" transform="translate(-61.000000, -53.000000)" fill="#000000">
          <g id="block-1">
              <g id="header">
                  <path d="M61.9645,65 L70.3115,65 L70.3115,63.096 L64.0555,63.096 L64.0555,53.1 L61.9645,53.1 L61.9645,65 Z M79.9675,65 L85.2035,53.015 L87.1415,53.015 L92.3775,65 L90.1675,65 L88.9605,62.127 L83.3335,62.127 L82.1095,65 L79.9675,65 Z M84.0985,60.274 L88.1955,60.274 L86.1385,55.514 L84.0985,60.274 Z M102.9175,65 L104.9745,65 L104.9745,56.534 L111.5365,65 L113.2875,65 L113.2875,53.1 L111.2305,53.1 L111.2305,61.328 L104.8555,53.1 L102.9175,53.1 L102.9175,65 Z M127.7715,65 L129.8795,65 L129.8795,55.038 L133.6535,55.038 L133.6535,53.1 L123.9975,53.1 L123.9975,55.038 L127.7715,55.038 L127.7715,65 Z M144.3635,65 L153.2715,65 L153.2715,63.13 L146.4545,63.13 L146.4545,59.934 L152.4215,59.934 L152.4215,58.064 L146.4545,58.064 L146.4545,54.97 L153.1865,54.97 L153.1865,53.1 L144.3635,53.1 L144.3635,65 Z M164.2535,65 L172.6005,65 L172.6005,63.096 L166.3445,63.096 L166.3445,53.1 L164.2535,53.1 L164.2535,65 Z M183.3955,65 L185.4865,65 L185.4865,53.1 L183.3955,53.1 L183.3955,65 Z M196.1455,65 L201.3815,53.015 L203.3195,53.015 L208.5555,65 L206.3455,65 L205.1385,62.127 L199.5115,62.127 L198.2875,65 L196.1455,65 Z M200.2765,60.274 L204.3735,60.274 L202.3165,55.514 L200.2765,60.274 Z" id="Lantelia"></path>
              </g>
          </g>
      </g>
  </g>
</svg>