<?xml version="1.0" encoding="UTF-8"?>
<svg width="24px" height="24px" viewBox="0 0 24 24" version="1.1" xmlns="http://www.w3.org/2000/svg" xmlns:xlink="http://www.w3.org/1999/xlink" style="background: #252525;">
    <!-- Generator: Sketch 46.2 (44496) - http://www.bohemiancoding.com/sketch -->
    <title>icon/phone</title>
    <desc>Created with Sketch.</desc>
    <defs></defs>
    <g id="Symbols" stroke="none" stroke-width="1" fill="none" fill-rule="evenodd">
        <g id="icon/phone" fill-rule="nonzero" fill="#FFFFFF">
            <path d="M18.5,13 C18.5,8.85786438 15.1421356,5.5 11,5.5 L11,6.5 C14.5898509,6.5 17.5,9.41014913 17.5,13 L18.5,13 Z" id="Oval"></path>
            <path d="M22.5,12 C22.5,6.20101013 17.7989899,1.5 12,1.5 L12,2.5 C17.2467051,2.5 21.5,6.75329488 21.5,12 L22.5,12 Z" id="Oval"></path>
            <path d="M13.4083514,16.2178752 L14.08984,16.1939919 C13.9727262,16.0922377 13.8558447,15.9899053 13.7392136,15.887013 L13.4083514,16.2178752 Z M15.4363832,14.1898434 L21.5,16.211049 L21.5,16.5714286 C21.5,18.2585644 20.8399164,19.6819112 19.552542,20.5508038 C18.7092469,21.8095488 17.2190695,22.5 15.5714286,22.5 C14.3897437,22.5 13.3555242,22.1795564 12.5719599,21.5098035 C8.27179976,19.209786 4.79021399,15.7282002 2.49019649,11.4280401 C1.82044362,10.6444758 1.5,9.61025629 1.5,8.42857143 C1.5,6.78091736 2.19046223,5.29072939 3.44922629,4.44743788 C4.31833562,3.16009328 5.74168156,2.5 7.42857143,2.5 L7.78895104,2.5 L9.81015664,8.56361681 L8.11298705,10.2607864 C9.85713131,12.2378171 11.7621829,14.1428687 13.7392136,15.887013 L15.4363832,14.1898434 Z M15.7064739,15.3339662 L13.7858468,17.2545933 L13.4339695,16.9488653 C11.1792546,14.9898597 9.01014031,12.8207454 7.05113475,10.5660305 L6.74540668,10.2141532 L8.66603384,8.29352605 L7.07216657,3.51192426 C5.83347602,3.59625154 4.83975479,4.12704937 4.23069678,5.07899242 L4.0762188,5.23245854 C3.06961902,5.86720215 2.5,7.06405381 2.5,8.42857143 C2.5,9.40582699 2.75864937,10.2222468 3.27948528,10.8118248 L3.34619479,10.9080444 C5.56133678,15.0723696 8.9276304,18.4386632 13.0919556,20.6538052 L13.1881752,20.7205147 C13.7777532,21.2413506 14.594173,21.5 15.5714286,21.5 C16.9359462,21.5 18.1327979,20.930381 18.7675415,19.9237812 L18.9210679,19.7692646 C19.8729875,19.1604137 20.4037674,18.1667252 20.4880799,16.9278348 L15.7064739,15.3339662 Z" id="Shape"></path>
        </g>
    </g>
</svg>