<?xml version="1.0" encoding="UTF-8"?>
<svg width="24px" height="24px" viewBox="0 0 24 24" version="1.1" xmlns="http://www.w3.org/2000/svg" xmlns:xlink="http://www.w3.org/1999/xlink">
    <!-- Generator: Sketch 46.2 (44496) - http://www.bohemiancoding.com/sketch -->
    <title>icon/phone copy 3</title>
    <desc>Created with Sketch.</desc>
    <defs></defs>
    <g id="Symbols" stroke="none" stroke-width="1" fill="none" fill-rule="evenodd">
        <g id="icon/phone-copy-3" fill-rule="nonzero" fill="#000000">
            <path d="M13.7893038,15.5035895 L14.4707924,15.4797062 C14.3536883,15.3779604 14.2368293,15.2756041 14.1202358,15.1726574 L13.7893038,15.5035895 Z M15.7220975,13.5707957 L21.5,15.4967632 L21.5,15.8571429 C21.5,17.4619113 20.8722358,18.8173866 19.6477155,19.6460048 C18.8430919,20.8435743 17.424497,21.5 15.8571429,21.5 C14.7328776,21.5 13.7478532,21.1951333 13.0006157,20.5574637 C8.92418936,18.3764834 5.62351664,15.0758106 3.44253633,10.9993843 C2.80486675,10.2521468 2.5,9.26712238 2.5,8.14285714 C2.5,6.57548988 3.15643668,5.15688446 4.35402522,4.35226431 C5.18284784,3.1277734 6.53832136,2.5 8.14285714,2.5 L8.50323675,2.5 L10.4292043,8.27790252 L8.82734256,9.87976422 C10.4690606,11.7391129 12.2608871,13.5309394 14.1202358,15.1726574 L15.7220975,13.5707957 Z M15.9921882,14.7149185 L14.1667992,16.5403076 L13.8149219,16.2345795 C11.677948,14.377873 9.62212698,12.322052 7.76542046,10.1850781 L7.45969239,9.83320083 L9.28508145,8.00781176 L7.78669742,3.51265966 C6.63058288,3.59638324 5.70435009,4.09459072 5.13545868,4.98375433 L4.9809807,5.13722044 C4.03555715,5.73338743 3.5,6.8586702 3.5,8.14285714 C3.5,9.06268811 3.74307579,9.82995032 4.23186623,10.3832534 L4.29857574,10.479473 C6.39467011,14.4199963 9.58000373,17.6053299 13.520527,19.7014243 L13.6167466,19.7681338 C14.1700497,20.2569242 14.9373119,20.5 15.8571429,20.5 C17.1413298,20.5 18.2666126,19.9644429 18.8627796,19.0190193 L19.016306,18.8645027 C19.9054459,18.2958059 20.4036359,17.3696049 20.4873447,16.213304 L15.9921882,14.7149185 Z" id="Shape"></path>
        </g>
    </g>
</svg>