<?xml version="1.0" encoding="UTF-8"?>
<svg width="24px" height="24px" viewBox="0 0 24 24" version="1.1" xmlns="http://www.w3.org/2000/svg" xmlns:xlink="http://www.w3.org/1999/xlink" style="background: #252525;">
    <!-- Generator: Sketch 46.2 (44496) - http://www.bohemiancoding.com/sketch -->
    <title>icon/shop</title>
    <desc>Created with Sketch.</desc>
    <defs></defs>
    <g id="Symbols" stroke="none" stroke-width="1" fill="none" fill-rule="evenodd">
        <g id="icon/shop" fill-rule="nonzero" fill="#FFFFFF">
            <path d="M8.5,20 C8.77614237,20 9,19.7761424 9,19.5 C9,19.2238576 8.77614237,19 8.5,19 C8.22385763,19 8,19.2238576 8,19.5 C8,19.7761424 8.22385763,20 8.5,20 Z M8.5,21 C7.67157288,21 7,20.3284271 7,19.5 C7,18.6715729 7.67157288,18 8.5,18 C9.32842712,18 10,18.6715729 10,19.5 C10,20.3284271 9.32842712,21 8.5,21 Z" id="Oval-4"></path>
            <path d="M18.5,20 C18.7761424,20 19,19.7761424 19,19.5 C19,19.2238576 18.7761424,19 18.5,19 C18.2238576,19 18,19.2238576 18,19.5 C18,19.7761424 18.2238576,20 18.5,20 Z M18.5,21 C17.6715729,21 17,20.3284271 17,19.5 C17,18.6715729 17.6715729,18 18.5,18 C19.3284271,18 20,18.6715729 20,19.5 C20,20.3284271 19.3284271,21 18.5,21 Z" id="Oval-4-Copy"></path>
            <path d="M8.72075922,15 L18.2792408,15 L20.6125741,8 L6.38742589,8 L8.72075922,15 Z M5,7 L22,7 L19,16 L8,16 L5,7 Z" id="Path-8"></path>
            <polygon id="Path-9" points="3.63962039 3.5 5.52565835 9.15811388 6.47434165 8.84188612 4.36037961 2.5 1 2.5 1 3.5"></polygon>
        </g>
    </g>
</svg>