<?xml version="1.0" encoding="UTF-8"?>
<svg width="48px" height="48px" viewBox="0 0 48 48" version="1.1" xmlns="http://www.w3.org/2000/svg" xmlns:xlink="http://www.w3.org/1999/xlink">
    <!-- Generator: Sketch 46.2 (44496) - http://www.bohemiancoding.com/sketch -->
    <title>button/SNW/t</title>
    <desc>Created with Sketch.</desc>
    <defs></defs>
    <g id="Symbols" stroke="none" stroke-width="1" fill="none" fill-rule="evenodd">
        <g id="button/SNW/t" fill="#252525">
            <path d="M21.2312982,30.516717 C27.5085898,30.516717 30.9420035,25.3160268 30.9420035,20.8060116 C30.9420035,20.658295 30.9420035,20.5112438 30.9320227,20.3648579 C31.5999623,19.8817253 32.176539,19.2835185 32.6347563,18.5982468 C32.0118706,18.8742518 31.3511049,19.0552559 30.6745166,19.1352167 C31.3869792,18.7086896 31.9202094,18.0378365 32.1749716,17.2475046 C31.5050285,17.6450455 30.7720935,17.9252125 30.0077956,18.0759154 C28.9498802,16.9510029 27.2688626,16.6756766 25.9073609,17.4043237 C24.5458593,18.1329708 23.8424725,19.6843804 24.1916194,21.188611 C21.4474806,21.0510413 18.8907718,19.7549101 17.157779,17.6227847 C16.2519319,19.182223 16.7146211,21.1772059 18.2144188,22.1787117 C17.6712881,22.1626143 17.1399994,22.0160991 16.6653903,21.7515312 L16.6653903,21.7947816 C16.6658348,23.4193937 17.8110269,24.818671 19.4034711,25.1403637 C18.9010147,25.2773942 18.3738333,25.2974253 17.8624273,25.1989181 C18.3095349,26.5891997 19.5908281,27.5416133 21.0509774,27.5690382 C19.8424524,28.5188375 18.3495326,29.0344456 16.8124415,29.0328967 C16.5408981,29.0323754 16.2696188,29.0159342 16,28.9836578 C17.5607633,29.9852542 19.3767979,30.5165286 21.2312982,30.5140554" id="icon"></path>
        </g>
    </g>
</svg>