<?xml version="1.0" encoding="UTF-8"?>
<svg width="24px" height="24px" viewBox="0 0 24 24" version="1.1" xmlns="http://www.w3.org/2000/svg" xmlns:xlink="http://www.w3.org/1999/xlink" style="background: #252525;">
    <!-- Generator: Sketch 46.2 (44496) - http://www.bohemiancoding.com/sketch -->
    <title>icon/pin</title>
    <desc>Created with Sketch.</desc>
    <defs></defs>
    <g id="Symbols" stroke="none" stroke-width="1" fill="none" fill-rule="evenodd">
        <g id="icon/pin" fill-rule="nonzero" fill="#FFFFFF">
            <path d="M12.6093062,22.6076061 C12.9401756,22.3320474 13.2021332,22.1131133 13.4659706,21.8912814 C14.1613901,21.3065794 14.7732227,20.7823885 15.3538839,20.2707233 C15.7895524,19.8868223 16.1969573,19.519211 16.5773114,19.1658593 C17.6141944,18.2025877 18.4297065,17.3640111 18.9903276,16.6696302 C20.2800394,15.0722032 21,13.0531591 21,10.9137931 C21,5.9815281 17.1846574,2 12.5,2 C7.81534258,2 4,5.9815281 4,10.9137931 C4,13.0439914 4.71376984,15.0549922 5.99345219,16.64948 C6.54972836,17.3426016 7.35969284,18.1783214 8.39020768,19.1374361 C8.7768155,19.4972575 9.19160506,19.8718117 9.63589448,20.2632941 C10.2180973,20.776298 10.8313573,21.3014819 11.530378,21.8888527 C11.7940992,22.1104514 12.0546086,22.3280439 12.3894188,22.6067405 C12.4281495,22.6389577 12.4649316,22.6695544 12.4999277,22.6986663 C12.5291904,22.6743049 12.5641541,22.6451966 12.6093062,22.6076061 Z M12.5,24 C10.6,22.4137931 6.9562251,19.4467594 5.2135607,17.2753947 C3.83183668,15.5537628 3,13.3351521 3,10.9137931 C3,5.43855636 7.25329488,1 12.5,1 C17.7467051,1 22,5.43855636 22,10.9137931 C22,13.3456761 21.1609168,15.5730444 19.768392,17.2978147 C18.0257318,19.4562599 14.4,22.4137931 12.5,24 Z" id="pin"></path>
            <path d="M12.5,13 C13.8807119,13 15,11.8807119 15,10.5 C15,9.11928813 13.8807119,8 12.5,8 C11.1192881,8 10,9.11928813 10,10.5 C10,11.8807119 11.1192881,13 12.5,13 Z M12.5,14 C10.5670034,14 9,12.4329966 9,10.5 C9,8.56700338 10.5670034,7 12.5,7 C14.4329966,7 16,8.56700338 16,10.5 C16,12.4329966 14.4329966,14 12.5,14 Z" id="Oval-6"></path>
        </g>
    </g>
</svg>